<svg width="50" height="50" viewBox="0 0 50 50" fill="none" xmlns="http://www.w3.org/2000/svg">
<rect x="0.5" y="0.5" width="49" height="49" rx="24.5" fill="#91AEC4" fill-opacity="0.2"/>
<rect x="0.5" y="0.5" width="49" height="49" rx="24.5" stroke="#91AEC4"/>
<path d="M29 34V32C29 30.9391 28.5786 29.9217 27.8284 29.1716C27.0783 28.4214 26.0609 28 25 28H19C17.9391 28 16.9217 28.4214 16.1716 29.1716C15.4214 29.9217 15 30.9391 15 32V34M29 16.128C29.8578 16.3504 30.6174 16.8513 31.1597 17.5521C31.702 18.2529 31.9962 19.1139 31.9962 20C31.9962 20.8861 31.702 21.7471 31.1597 22.4479C30.6174 23.1487 29.8578 23.6496 29 23.872M35 34V32C34.9993 31.1137 34.7044 30.2528 34.1614 29.5523C33.6184 28.8519 32.8581 28.3516 32 28.13M26 20C26 22.2091 24.2091 24 22 24C19.7909 24 18 22.2091 18 20C18 17.7909 19.7909 16 22 16C24.2091 16 26 17.7909 26 20Z" stroke="#91AEC4" stroke-width="2" stroke-linecap="round" stroke-linejoin="round"/>
</svg>
