<svg width="50" height="50" viewBox="0 0 50 50" fill="none" xmlns="http://www.w3.org/2000/svg">
<rect x="0.5" y="0.5" width="49" height="49" rx="24.5" fill="#AA7444" fill-opacity="0.2"/>
<rect x="0.5" y="0.5" width="49" height="49" rx="24.5" stroke="#AA7444"/>
<path d="M28 34V26C28 25.7348 27.8946 25.4804 27.7071 25.2929C27.5196 25.1053 27.2652 25 27 25H23C22.7348 25 22.4804 25.1053 22.2929 25.2929C22.1054 25.4804 22 25.7348 22 26V34M16 23C15.9999 22.7091 16.0633 22.4216 16.1858 22.1577C16.3082 21.8938 16.4868 21.6598 16.709 21.472L23.709 15.472C24.07 15.1669 24.5274 14.9995 25 14.9995C25.4726 14.9995 25.93 15.1669 26.291 15.472L33.291 21.472C33.5132 21.6598 33.6918 21.8938 33.8142 22.1577C33.9367 22.4216 34.0001 22.7091 34 23V32C34 32.5304 33.7893 33.0391 33.4142 33.4142C33.0391 33.7893 32.5304 34 32 34H18C17.4696 34 16.9609 33.7893 16.5858 33.4142C16.2107 33.0391 16 32.5304 16 32V23Z" stroke="#AA7444" stroke-width="2" stroke-linecap="round" stroke-linejoin="round"/>
</svg>
