<svg width="50" height="50" viewBox="0 0 50 50" fill="none" xmlns="http://www.w3.org/2000/svg">
<rect x="0.5" y="0.5" width="49" height="49" rx="24.5" fill="#AA7444" fill-opacity="0.2"/>
<rect x="0.5" y="0.5" width="49" height="49" rx="24.5" stroke="#AA7444"/>
<path d="M34.54 28H30C29.4696 28 28.9609 28.2107 28.5858 28.5858C28.2107 28.9609 28 29.4696 28 30V34.54M20 16.34V18C20 18.7956 20.3161 19.5587 20.8787 20.1213C21.4413 20.6839 22.2044 21 23 21C23.5304 21 24.0391 21.2107 24.4142 21.5858C24.7893 21.9609 25 22.4696 25 23C25 24.1 25.9 25 27 25C27.5304 25 28.0391 24.7893 28.4142 24.4142C28.7893 24.0391 29 23.5304 29 23C29 21.9 29.9 21 31 21H34.17M24 34.95V31C24 30.4696 23.7893 29.9609 23.4142 29.5858C23.0391 29.2107 22.5304 29 22 29C21.4696 29 20.9609 28.7893 20.5858 28.4142C20.2107 28.0391 20 27.5304 20 27V26C20 25.4696 19.7893 24.9609 19.4142 24.5858C19.0391 24.2107 18.5304 24 18 24H15.05M35 25C35 30.5228 30.5228 35 25 35C19.4772 35 15 30.5228 15 25C15 19.4772 19.4772 15 25 15C30.5228 15 35 19.4772 35 25Z" stroke="#AA7444" stroke-width="2" stroke-linecap="round" stroke-linejoin="round"/>
</svg>
