<svg width="140" height="127" viewBox="0 0 140 127" fill="none" xmlns="http://www.w3.org/2000/svg">
<path d="M9.56641 101.587C17.1068 104.262 22.4684 104.988 27.3516 105.311C32.327 105.639 36.709 105.55 42.4229 106.671C48.153 107.795 52.3767 109.077 56.2607 110.978C60.1466 112.878 63.7158 115.409 68.126 119.058L68.4248 119.305L68.7383 119.077C77.5244 112.716 83.3193 108.016 94.4307 106.677C102.047 105.759 107.317 106.073 112.812 105.805C118.193 105.542 123.658 104.716 131.441 101.618L135.082 109.843C124.828 109.837 116.691 109.716 110 109.812C103.139 109.909 97.7544 110.235 93.1064 111.155C83.8934 112.979 77.6328 117.13 68.4824 126.257C61.9031 118.238 55.3907 113.858 45.8184 111.63C36.2745 109.408 23.6961 109.327 5.00781 109.821L9.56641 101.587Z" fill="#F0C095" stroke="#F0C095"/>
<path d="M72.7334 1.4707C75.8891 3.92537 78.1421 6.86831 79.5801 10.377C81.2333 14.4111 81.8211 19.2232 81.4268 24.9492C81.2559 27.4294 80.7485 29.2956 79.6719 31.1133C78.586 32.9465 76.905 34.7593 74.3301 37.1055L73.0742 38.25L74.749 37.9688C76.7791 37.628 78.3567 37.2208 79.8447 36.4961C81.3333 35.7711 82.7038 34.7417 84.3428 33.1943C87.2178 30.4798 88.2421 26.5691 88.0605 22.0693C87.8963 18.0001 86.7435 13.3936 85.0264 8.62305C87.5775 10.522 90.0051 13.0054 95.0088 19.04C97.0413 21.9907 97.9015 23.7872 99.083 27.2275C100.682 31.8822 101.243 37.7377 99.0791 44.6123L98.71 45.7852L99.792 45.2031C107.081 41.2842 110.89 38.7321 115.014 33.2422L139.387 85.2314C137.171 87.1743 136.606 88.2118 133.513 90.1416C127.658 93.7941 123.229 95.4527 112.954 97.3584L112.688 97.3936C108.73 97.9077 107.124 98.116 98.4443 98.4111L98.4434 98.3994C98.407 98.405 98.3702 98.4095 98.334 98.415L98.3301 98.416L98.3008 98.4209C91.3776 99.4832 86.3945 100.558 79.6436 103.644L79.627 103.651L79.6113 103.66C76.2376 105.515 74.4988 106.853 68.4307 111.792C62.7406 107.521 60.8172 106.528 55.1904 103.653L55.167 103.642L55.1426 103.632C48.7294 101.157 45.5165 100.234 40.5234 99.4404L40.5107 99.4385L40.498 99.4375L36.2783 98.9766C32.3633 98.5356 29.0763 98.1131 23.9346 97.3584C15.9854 95.6731 9.10242 93.5309 0.616211 86.2695L25.0771 35.1152C31.8062 40.1332 36.2685 42.5145 45.4873 45.2422L46.0254 45.4004L46.1221 44.8486C46.9828 39.9275 48.4008 36.5248 50.7793 33.6367C53.1696 30.7344 56.5584 28.3151 61.4404 25.4131L61.4639 25.3994L61.4863 25.3828L65.6338 22.2598L65.6445 22.252C70.0989 18.7063 72.5036 14.7075 73.3818 10.7686C74.11 7.50264 73.7812 4.30308 72.7334 1.4707ZM91.6992 19.541L90.7598 19.8008C91.042 26.0825 89.7909 30.7974 86.7344 34.498C83.8569 37.9817 79.3306 40.6279 72.7998 42.7979L71.4668 43.2256C71.4474 43.2316 71.4277 43.2371 71.4082 43.2432L71.4092 43.2461C69.5897 43.9245 68.6705 44.4142 67.1406 45.3809L67.1289 45.3877L64.0186 47.4697L64.0068 47.4775C61.6018 49.1852 59.8613 50.6902 58.4014 52.4834C56.9423 54.2757 55.7803 56.3351 54.5078 59.1289L54.4961 59.1533L54.4883 59.1797C53.7303 61.4843 53.4795 63.0011 53.4297 64.9717L52.2686 63.2236L52.2529 63.2012L52.2363 63.1797L52.0977 63.0088C51.7183 62.5233 50.9599 61.4118 50.1494 59.166C49.6232 57.7078 49.0715 55.9344 48.1592 53.9248L48.1445 53.8916L48.125 53.8613L47.8086 53.375C47.0887 52.2861 46.4902 51.5083 45.9004 50.9248C45.2165 50.2482 44.555 49.8438 43.7559 49.5088C42.2176 48.7438 40.7514 48.5304 38.3926 48.4268L38.3203 48.4238L38.25 48.4404C35.9856 49.0014 34.3242 49.5646 32.9824 50.3916C31.6272 51.227 30.6292 52.3124 29.6514 53.8643L29.2695 54.4707L29.9697 54.6201C32.4619 55.1518 34.0275 55.9033 35.1699 57.0986C36.3194 58.3013 37.0933 60.0065 37.8818 62.5723C38.6197 67.6341 39.0692 70.2162 39.958 74.0234L39.96 74.0361L39.9639 74.0479C41.6985 80.0888 42.9684 82.941 46.2861 86.7256V86.7266C48.0452 88.788 49.3796 89.923 51.6094 91.3818L52.623 92.0303C54.2245 93.1145 55.2045 93.579 56.8604 94.1562C59.4937 95.2182 61.4719 95.6784 65.2568 96.2646L65.2676 96.2666L65.2793 96.2676C68.156 96.5812 69.8044 96.5495 72.6445 96.2666L72.6455 96.2676C72.6716 96.2648 72.6977 96.2626 72.7236 96.2598C76.0981 95.8969 78.1704 95.4371 82.0811 94.1641L82.0996 94.1582L82.1182 94.1504C86.299 92.4057 88.3296 91.2386 91.5537 88.8877L91.5684 88.877L91.583 88.8652C93.7529 87.0253 95.0939 85.8528 96.8408 83.584L96.8506 83.5703C99.2651 80.2026 100.794 77.5075 101.816 74.7393C102.83 71.9933 103.335 69.1999 103.731 65.6475C103.868 65.3594 104.011 65.062 104.156 64.7539L103.704 64.541L103.252 64.3271C103.094 64.6616 102.942 64.9837 102.794 65.2939C101.118 68.8153 100.033 70.8705 98.1094 73.6221C95.7637 76.961 94.2795 78.5018 90.9746 80.7852C87.1125 83.3302 84.3812 84.5914 81.002 85.3418L82.1504 84.7666L82.167 84.7578L82.1836 84.748C84.7974 83.176 86.2755 82.2503 88.4561 80.5498L88.4551 80.5488C91.5073 78.2921 92.1175 77.1178 93.7109 75.2783L93.7305 75.2559L93.748 75.2305C95.2093 73.0663 95.8627 71.6162 96.9111 68.8838L96.9248 68.8477L96.9336 68.8105C97.8688 64.4674 98.0486 62.0211 97.4492 59.7148C97.614 59.3103 97.7806 58.8986 97.9463 58.4785L97.0166 58.1113C96.9989 58.1561 96.9796 58.2005 96.9619 58.2451C96.9433 58.1986 96.9264 58.1511 96.9072 58.1045L96.4443 58.2949L95.9824 58.4854C96.1456 58.882 96.281 59.2676 96.3945 59.6523C93.6122 66.4258 90.9737 70.9042 87.7822 73.9463C84.5793 76.9993 80.7804 78.6432 75.6074 79.6641C72.994 80.0762 71.2979 80.1028 70.1436 79.6836C69.0609 79.2903 68.3818 78.4735 67.8955 76.9189C67.7115 75.8253 67.7554 74.9103 68.0605 73.8818C68.3732 72.8284 68.963 71.6413 69.9053 70.0107C72.7483 65.7231 77.5007 62.4517 86.3486 56.6309L86.373 56.6143L86.3955 56.5957C88.9355 54.4602 90.7986 52.6134 92.2832 50.3584C93.768 48.1032 94.8564 45.4674 95.8887 41.7744L95.8926 41.7588L95.8965 41.7441C96.7797 37.6287 96.6463 35.0004 95.9033 30.1289C95.6023 26.8911 94.2423 24.2449 91.6992 19.541ZM40.0283 84.042C38.4133 86.4641 37.7414 88.8445 37.8721 90.6025L37.873 90.625L37.877 90.6465C38.2301 92.7925 38.6145 94.2423 39.3232 95.1289C40.0871 96.0844 41.1491 96.3086 42.5322 96.2705C43.846 96.2343 44.9063 95.8287 45.3906 94.8848C45.8589 93.9717 45.6732 92.7604 45.0469 91.3975L45.0381 91.3779L45.0273 91.3594L40.8789 84.0723L40.4785 83.3682L40.0283 84.042ZM35.916 72.5439C35.0402 73.5695 34.5339 74.1984 33.7725 75.7744L33.7432 75.834L33.7305 75.9004C33.4809 77.2386 33.3572 78.1578 33.3623 78.835C33.3675 79.5188 33.5052 79.9884 33.79 80.4082C34.399 81.6079 35.0007 82.4217 35.7939 82.7988C36.6151 83.1891 37.5106 83.0533 38.5293 82.7119C38.9113 82.5839 39.2449 82.3838 39.4717 82.0645C39.6995 81.7436 39.7756 81.3639 39.7627 80.9619C39.7381 80.1975 39.3811 79.1841 38.8379 77.8955C38.1121 75.7687 37.6179 74.6397 36.7539 72.668L36.4346 71.9375L35.916 72.5439ZM34.7363 61.3242C34.713 61.2792 34.6899 61.2334 34.666 61.1875L34.2227 61.418L33.7783 61.6484C33.9076 61.897 34.0278 62.1331 34.1416 62.3564L32.6992 64.8652L32.6729 64.9111L32.6562 64.9619C32.3485 65.9221 32.1963 66.671 32.2051 67.3799C32.2139 68.0942 32.3865 68.7299 32.666 69.4619L32.7051 69.5654L32.7842 69.6426C33.1223 69.9715 33.4304 70.2478 33.7285 70.4424C34.0333 70.6413 34.357 70.7739 34.7207 70.7783C35.081 70.7827 35.4173 70.6597 35.7471 70.4688C35.997 70.324 36.2615 70.1277 36.5518 69.8906L36.7314 69.9922C36.8076 69.8576 36.8726 69.7199 36.9268 69.5762L36.9346 69.5703L36.9775 69.4336C37.2131 68.6814 37.0981 67.8408 36.7861 66.5273C36.6058 65.3117 36.2037 64.2437 35.2773 62.3877L35.6924 61.667L35.2588 61.418L34.8262 61.1689L34.7363 61.3242ZM75.2051 11.415C74.929 15.2873 74.1252 18.0793 72.5479 20.5283C70.9631 22.9889 68.5714 25.1446 65.04 27.7012C57.2246 33.2042 52.4682 37.703 50.2129 42.1787C47.9319 46.7054 48.2401 51.1405 50.3506 56.3994L50.8447 57.6309L51.2861 56.3789C53.4047 50.3701 55.5473 46.4063 58.3281 43.3857C61.1086 40.3657 64.5605 38.2524 69.3682 35.998C69.4753 35.9478 69.5839 35.8971 69.6924 35.8467L69.6582 35.7734C72.6557 33.2269 74.7611 31.0624 76.1377 28.502C77.5462 25.8822 78.1683 22.8957 78.2773 18.751C78.3168 17.2492 78.1911 16.0656 77.8418 14.8936C77.4947 13.729 76.9334 12.5995 76.1377 11.2031L75.3223 9.77148L75.2051 11.415Z" fill="#F0C095" stroke="#F0C095"/>
</svg>
