<svg width="189" height="171" viewBox="0 0 189 171" fill="none" xmlns="http://www.w3.org/2000/svg">
<path d="M92.3996 171C117.6 145.77 126 148.573 183.4 148.573L177.8 135.959C156.29 144.639 148.013 140.49 127.4 142.967C112.198 144.794 104.238 151.238 92.3996 159.787C80.456 149.931 72.94 146.007 57.3996 142.967C41.8592 139.927 33.3908 143.428 12.5996 135.959L5.59961 148.573C57.3996 147.172 74.4707 148.865 92.3996 171Z" fill="white" fill-opacity="0.8"/>
<path d="M12.8311 136.571C23.0669 140.207 30.3258 141.188 36.9355 141.623C43.6372 142.064 49.5752 141.946 57.3037 143.458C65.0486 144.973 70.7672 146.703 76.0293 149.271C81.2929 151.839 86.1227 155.256 92.0811 160.173L92.3789 160.418L92.6924 160.192C104.548 151.631 112.406 145.273 127.459 143.464C137.748 142.227 144.891 142.649 152.288 142.288C159.57 141.933 166.966 140.815 177.537 136.601L182.629 148.071C168.656 148.065 157.592 147.9 148.502 148.029C139.242 148.161 131.986 148.599 125.728 149.835C113.293 152.29 104.853 157.884 92.4365 170.257C83.5335 159.391 74.7528 153.478 61.8145 150.474C48.9043 147.476 31.8623 147.376 6.46094 148.051L12.8311 136.571Z" stroke="white" stroke-opacity="0.8"/>
<path fill-rule="evenodd" clip-rule="evenodd" d="M96.6 0C100.8 8.40984 100.018 20.0523 88.2 29.4344L82.6 33.6393C69.3965 41.4671 63.9514 46.8619 61.6 60.2705C48.9378 56.5338 42.9967 53.3035 33.6 46.2541L0 116.336C11.7607 126.49 21.2687 129.444 32.2 131.754C41.4766 133.112 46.2905 133.671 54.6 134.557C61.2808 135.617 65.5711 136.843 74.2 140.164C81.9123 144.094 84.4284 145.387 92.4 151.377C100.928 144.451 103.232 142.668 107.8 140.164C116.835 136.046 123.494 134.611 132.808 133.185C144.644 132.785 146.831 132.502 152.215 131.804L152.6 131.754C166.535 129.177 172.601 126.92 180.6 121.943C185 119.205 185.794 117.672 189 114.934L155.4 43.4508C149.651 51.3642 144.598 54.8014 134.4 60.2705C137.368 50.8671 136.601 42.8359 134.4 36.4426C132.784 31.7493 131.595 29.2736 128.8 25.2295C120.891 15.7147 117.695 12.6775 113.4 9.81148C118.845 24.0431 120.773 37.263 113.4 44.2056C109.029 48.3213 106.225 49.5507 100.8 50.459C107.774 44.1209 110.128 40.4751 110.6 33.6393C111.674 18.0835 107.414 7.28257 96.6 0ZM88.2 37.8443C97.774 30.9313 101.444 25.9941 102.2 15.418C104.334 19.1536 105.104 21.2875 105 25.2295C104.709 36.2743 101.682 40.85 93.3609 47.8601C80.3191 53.9593 74.3504 59.4215 68.6 75.6885C62.9937 61.7551 67.112 52.6526 88.2 37.8443ZM60.2 123.344C61.8446 126.914 60.76 128.858 57.4 128.951C53.8081 129.05 52.7605 127.764 51.8 121.943C51.6379 119.769 52.4751 116.711 54.6 113.533L60.2 123.344ZM51.8 105.123C53.292 108.649 53.5217 110.154 51.8 110.73C49.1236 111.624 47.8397 111.163 46.2 107.926C45.5774 107.042 45.5264 105.922 46.2 102.32C47.1943 100.267 47.8401 99.4695 49 98.1148C50.1679 100.773 50.8255 102.273 51.8 105.123ZM46.8601 83.9795C48.228 86.6823 48.7649 88.096 49 89.7049C49.4287 91.4998 49.5324 92.4677 49.2749 93.2879C47.1438 95.1049 46.5372 95.0419 44.7292 93.2879C44.002 91.3886 43.918 90.1983 44.7292 87.6742L46.8601 83.9795ZM128.8 40.6475C128.412 36.4407 126.652 32.9994 123.2 26.6311C123.972 43.7628 116.366 52.7569 96.6804 58.844C94.2457 59.7472 93.0439 60.3841 91 61.6721L86.8 64.4754C80.3607 69.0354 77.6125 72.421 74.2 79.8934C72.9381 83.7201 72.7426 85.8687 72.8 89.7049L70 85.5C69.5431 84.9534 68.3449 83.4247 67.0672 79.8934C66.3452 77.8982 65.617 75.5589 64.4 72.8852C62.0785 69.276 60.8303 68.1256 58.8 67.2787C56.8423 66.301 54.9756 66.0162 51.8 65.877C45.7199 67.3795 43.1627 68.8285 40.6 72.8852C47.4643 74.3458 49.6496 77.1005 51.8 84.0984C52.7995 90.9407 53.4028 94.4019 54.6 99.5164C56.928 107.603 58.6064 111.339 63 116.336C65.6579 119.443 67.5646 120.944 71.4 123.344C73.5272 124.782 74.7993 125.383 77 126.148C80.4948 127.554 83.1091 128.164 88.2 128.951C92.0636 129.371 94.246 129.326 98.1046 128.94C102.606 128.457 105.357 127.85 110.6 126.148C116.197 123.818 118.891 122.273 123.2 119.139C126.121 116.669 127.887 115.128 130.2 112.131C136.678 103.119 138.313 97.8348 139.381 88.2053C137.111 92.9626 135.628 95.7672 133 99.5164C129.792 104.071 127.734 106.204 123.2 109.328C116.326 113.848 112.029 115.427 105 116.336L110.6 113.533C114.121 111.421 116.088 110.191 119 107.926C123.055 104.938 123.808 103.442 126 100.918C127.933 98.0628 128.794 96.1629 130.2 92.5082C131.489 86.5367 131.684 83.3631 130.849 80.3575C123.247 98.9001 116.328 105.146 102.2 107.926C95.1153 109.044 92.3883 108.204 91 103.721C90.4554 100.554 91.2352 98.3339 93.8 93.9098C97.7298 87.9897 104.285 83.5066 116.2 75.6885C123.017 69.9721 126.033 65.9372 128.8 56.0656C129.97 50.6291 129.799 47.1785 128.8 40.6475Z" fill="white" fill-opacity="0.8"/>
<path d="M97.8086 1.4707C102.349 4.86678 105.569 8.97373 107.596 13.9072C109.84 19.3705 110.635 25.8775 110.102 33.6045C109.87 36.964 109.178 39.5046 107.708 41.9805C106.228 44.472 103.943 46.9272 100.464 50.0889L99.2051 51.2334L100.883 50.9521C103.616 50.4945 105.727 49.9497 107.714 48.9844C109.702 48.0188 111.538 46.6462 113.743 44.5693C117.574 40.9616 118.95 35.7533 118.706 29.7217C118.479 24.1154 116.851 17.7389 114.429 11.1338C118.068 13.7532 121.34 17.0389 128.401 25.5332C131.158 29.5243 132.327 31.9575 133.928 36.6055C136.097 42.9049 136.856 50.8263 133.923 60.1201L133.554 61.292L134.637 60.7109C144.569 55.3845 149.691 51.9473 155.304 44.4229L188.387 114.805C185.34 117.454 184.569 118.885 180.336 121.519C172.41 126.45 166.409 128.69 152.53 131.258C152.402 131.274 152.276 131.291 152.151 131.308C146.806 132 144.631 132.283 132.928 132.68L132.925 132.661C132.861 132.671 132.796 132.681 132.732 132.69C123.394 134.119 116.686 135.564 107.593 139.709L107.576 139.717L107.56 139.726C103.001 142.225 100.665 144.022 92.3867 150.743C84.6301 144.93 82.0535 143.605 74.4268 139.719L74.4043 139.707L74.3799 139.697L72.8066 139.097C65.1792 136.214 60.9835 135.063 54.6787 134.063L54.666 134.062L54.6533 134.061L51.6875 133.741C45.0835 133.023 40.3923 132.448 32.2979 131.263C21.5083 128.982 12.1573 126.082 0.617188 116.204L33.7881 47.0166C42.9522 53.8484 48.9559 57.0606 61.458 60.75L61.9961 60.9082L62.0928 60.3564C63.2583 53.7108 65.1808 49.0987 68.416 45.1807C71.6633 41.2481 76.2618 37.9785 82.8555 34.0693L82.8789 34.0557L82.9004 34.0391L88.5 29.834L88.5107 29.8262C94.4971 25.0737 97.7186 19.7223 98.8945 14.4619C99.9189 9.87945 99.3843 5.39335 97.8086 1.4707ZM123.64 26.3926L122.7 26.6533C123.082 35.139 121.389 41.5345 117.227 46.5605C113.182 51.4443 106.755 55.1 97.4434 58.0801L96.5332 58.3662L96.5195 58.3701L96.5156 58.3711C96.4948 58.3775 96.474 58.3842 96.4531 58.3906L96.4541 58.3945C94.3239 59.1872 93.116 59.7862 91.4736 60.7891L90.7334 61.249L90.7227 61.2559L86.5225 64.0596L86.5107 64.0674C83.2709 66.3617 80.935 68.3782 78.9775 70.7764C77.0211 73.1734 75.46 75.9305 73.7451 79.6855L73.7334 79.7109L73.7256 79.7373C72.638 83.0357 72.3286 85.1232 72.2949 88.0449L70.416 85.2227L70.4014 85.2002L70.3838 85.1797L70.1924 84.9424C69.6696 84.2747 68.6371 82.7635 67.5371 79.7236C66.8236 77.7519 66.0835 75.3756 64.8555 72.6777L64.8398 72.6455L64.8203 72.6152L64.3945 71.9619C63.4257 70.5003 62.6259 69.4641 61.8418 68.6904C60.9424 67.803 60.0744 67.272 59.0225 66.8301C56.9687 65.8047 55.0156 65.5179 51.8223 65.3779L51.75 65.374L51.6797 65.3916C48.6275 66.1459 46.4066 66.8983 44.6191 67.9971C42.8179 69.1044 41.488 70.5441 40.1777 72.6182L39.7939 73.2246L40.4961 73.374C43.8782 74.0937 46.0303 75.117 47.6064 76.7617C49.1892 78.4134 50.2443 80.7453 51.3115 84.2109C52.3086 91.0337 52.9141 94.5066 54.1133 99.6299L54.1162 99.6426L54.1191 99.6543C56.4582 107.779 58.1637 111.593 62.624 116.666C65.1527 119.621 67.0243 121.152 70.4316 123.324L71.1348 123.769C73.0213 125.043 74.2603 125.676 76.0361 126.334L76.8359 126.62C80.3693 128.04 83.0251 128.658 88.124 129.445L88.1348 129.446L88.1455 129.448C92.0148 129.869 94.2281 129.826 98.0518 129.446L98.0527 129.448C98.0766 129.446 98.1003 129.442 98.124 129.439C98.1341 129.438 98.1442 129.439 98.1543 129.438L98.1582 129.437C102.699 128.949 105.485 128.334 110.755 126.623L110.773 126.617L110.792 126.609C116.424 124.265 119.153 122.701 123.494 119.544L123.509 119.533L123.522 119.521C126.45 117.046 128.249 115.476 130.596 112.437L130.601 112.43L130.606 112.423C133.861 107.896 135.915 104.281 137.288 100.573C138.653 96.8879 139.333 93.1354 139.867 88.3447C140.056 87.9487 140.251 87.5396 140.452 87.1152L139.548 86.6875C139.335 87.1381 139.129 87.5721 138.93 87.9902C136.806 92.4394 135.383 95.158 133.066 98.543L132.591 99.2285C129.414 103.739 127.396 105.829 122.916 108.916C117.198 112.674 113.303 114.368 108.092 115.347L110.824 113.979L110.841 113.972L110.857 113.962C114.38 111.849 116.367 110.607 119.297 108.329C123.41 105.298 124.214 103.737 126.378 101.246L126.397 101.224L126.414 101.198C128.377 98.2993 129.254 96.3604 130.667 92.6875L130.681 92.6514L130.688 92.6133C131.958 86.7353 132.189 83.4715 131.373 80.3916C131.602 79.8305 131.835 79.2592 132.065 78.6758L131.6 78.4922L131.135 78.3076C131.056 78.5066 130.974 78.7031 130.896 78.8994C130.821 78.701 130.745 78.5009 130.662 78.3008L130.2 78.4922L129.737 78.6826C129.968 79.2416 130.16 79.7849 130.318 80.3291C126.551 89.4881 122.971 95.5608 118.627 99.6904C114.272 103.831 109.109 106.056 102.105 107.435C98.5727 107.991 96.2399 108.036 94.6338 107.454C93.0998 106.898 92.1545 105.739 91.4883 103.607C91.2337 102.106 91.2919 100.845 91.7129 99.4297C92.141 97.9907 92.9469 96.3776 94.2197 94.1807C98.0811 88.3669 104.533 83.9415 116.475 76.1064L116.499 76.0908L116.521 76.0713C119.945 73.2004 122.446 70.7268 124.437 67.7109C126.428 64.6947 127.89 61.1636 129.281 56.2002L129.289 56.1709C130.476 50.653 130.299 47.1356 129.295 40.5762C128.891 36.2608 127.074 32.7294 123.64 26.3926ZM54.1846 113.255C52.0186 116.495 51.129 119.662 51.3018 121.979L51.3027 122.002L51.3066 122.024C51.7843 124.919 52.2983 126.826 53.2227 127.979C54.2021 129.202 55.5656 129.501 57.4141 129.45C59.1624 129.402 60.5105 128.867 61.1211 127.681C61.716 126.524 61.4939 124.957 60.6543 123.135L60.6445 123.115L60.6338 123.097L55.0342 113.285L54.6338 112.583L54.1846 113.255ZM48.6201 97.79C47.4437 99.164 46.7692 99.9975 45.75 102.102L45.7207 102.162L45.709 102.228C45.3721 104.029 45.2071 105.252 45.2139 106.146C45.2207 107.043 45.4019 107.641 45.7656 108.174C46.588 109.793 47.3797 110.847 48.3975 111.329C49.4411 111.824 50.5927 111.66 51.958 111.204C52.4514 111.039 52.8654 110.787 53.1436 110.396C53.4228 110.004 53.5216 109.533 53.5049 109.017C53.4728 108.023 53.004 106.686 52.2676 104.944C51.2891 102.084 50.6247 100.57 49.458 97.9141L49.1377 97.1855L48.6201 97.79ZM46.8887 82.9287L46.8848 82.9346C46.8061 82.7824 46.7269 82.6256 46.6436 82.4658L46.2002 82.6963L45.7568 82.9277C45.9476 83.2936 46.1239 83.639 46.29 83.9648L44.2959 87.4248L44.2695 87.4707L44.2529 87.5215C43.8401 88.8063 43.6409 89.7938 43.6523 90.7217C43.6639 91.6552 43.8888 92.4902 44.2627 93.4668L44.3018 93.5703L44.3809 93.6465C44.8362 94.0883 45.2424 94.45 45.6299 94.7021C46.024 94.9587 46.4281 95.1215 46.875 95.127C47.3185 95.1323 47.7405 94.9824 48.1699 94.7344C48.4821 94.5541 48.815 94.3107 49.1826 94.0137L49.4346 94.1562C49.5407 93.9691 49.6298 93.7789 49.7021 93.5801L49.709 93.5752L49.752 93.4375C50.0542 92.4745 49.9134 91.3856 49.4912 89.6133C49.2501 87.9807 48.7076 86.5478 47.4268 83.9961L48.0332 82.9463L47.5996 82.6963L47.167 82.4473L46.8887 82.9287ZM101.701 15.3828C101.327 20.6152 100.237 24.4045 98.0869 27.7334C95.9297 31.0741 92.6797 33.9925 87.9072 37.4385C77.3583 44.8467 70.9674 50.8834 67.9434 56.8691C64.8934 62.9061 65.2985 68.8234 68.1357 75.875L68.6299 77.1035L69.0713 75.8555C71.9352 67.754 74.8368 62.3921 78.6133 58.3008C82.3895 54.2099 87.074 51.3526 93.5723 48.3135C93.7171 48.2458 93.8632 48.1773 94.0098 48.1094L93.9609 48.0049C97.9836 44.5934 100.795 41.7032 102.632 38.2949C104.516 34.8001 105.353 30.8088 105.5 25.2432C105.553 23.2342 105.383 21.6598 104.918 20.1035C104.455 18.5545 103.706 17.047 102.634 15.1699L101.818 13.7422L101.701 15.3828Z" stroke="white" stroke-opacity="0.8"/>
</svg>
